<?xml version="1.0" encoding="utf-8"?>
<!-- Generator: Adobe Illustrator 16.0.0, SVG Export Plug-In . SVG Version: 6.00 Build 0)  -->
<!DOCTYPE svg PUBLIC "-//W3C//DTD SVG 1.1//EN" "http://www.w3.org/Graphics/SVG/1.1/DTD/svg11.dtd">
<svg version="1.1" id="Layer_1" xmlns="http://www.w3.org/2000/svg" xmlns:xlink="http://www.w3.org/1999/xlink" x="0px" y="0px"
	 width="119.552px" height="41.733px" viewBox="0 0 119.552 41.733" enable-background="new 0 0 119.552 41.733"
	 xml:space="preserve">
<g>
	<g>
		<path fill="#B11116" d="M0,26.595c0,0,1.506,0.323,3.276,0.04c4.815-0.777,8.125-4.597,8.125-9.3c0-4.713-3.328-8.548-8.125-9.308
			C1.579,7.754,0,8.071,0,8.071V26.595z M3.549,11.72c2.644,0.797,4.323,2.952,4.323,5.615c0,2.649-1.679,4.808-4.323,5.598V11.72z"
			/>
		<path fill="#B11116" d="M19.853,8.071v33.5c0,0,1.32,0.332,3.262,0.046c2.203-0.326,4.2-1.475,5.653-3.159
			c1.476-1.701,2.279-3.889,2.279-6.143c0-2.949-1.386-5.71-3.714-7.5c2.328-1.779,3.714-4.541,3.714-7.48
			c0-2.262-0.804-4.439-2.279-6.147c-1.454-1.697-3.459-2.806-5.653-3.161C21.265,7.724,19.853,8.071,19.853,8.071 M23.404,26.708
			c2.426,0.77,4.102,3.023,4.102,5.607c0,2.586-1.676,4.838-4.102,5.605V26.708z M23.404,11.72c2.426,0.764,4.102,3.01,4.102,5.615
			c0,2.577-1.676,4.827-4.102,5.598V11.72z"/>
		<polygon fill="#B11116" points="13.314,10.15 13.314,26.764 16.857,26.764 16.857,10.15 26.994,0 21.986,0 15.08,6.908 8.187,0 
			3.162,0 		"/>
	</g>
	<path fill="#6D6E71" d="M104.208,13.901v-1.185h-2.471V8.948l-3.492-0.629l-0.221,0.536l1.412,0.961v9.433h-8.128v1.193h8.128
		v4.409h1.578c0.407,0,0.723-0.327,0.723-0.741V13.901H104.208z"/>
	<path fill="#6D6E71" d="M105.622,15.516v1.199h4.023v2.453h1.555c0.416,0,0.739-0.329,0.739-0.739v-1.714h4.015v-1.199h-2.096
		c0.741-0.683,1.209-1.626,1.209-2.662c0-2.115-1.924-3.84-4.299-3.84c-2.381,0-4.299,1.725-4.299,3.84
		c0,1.035,0.454,1.979,1.209,2.662H105.622z M108.763,12.854c0-1.481,0.893-2.675,2.006-2.675c1.102,0,2.004,1.193,2.004,2.675
		c0,1.46-0.892,2.64-1.985,2.662h-0.05C109.646,15.494,108.763,14.314,108.763,12.854"/>
	<path fill="#6D6E71" d="M114.104,17.96v1.206h3.158v4.495h-6.102v-3.673l-3.038-0.462l-0.146,0.39l0.891,0.653v2.579
		c0,0.938,0.761,1.704,1.707,1.704h8.977V8.948l-3.504-0.629l-0.215,0.536l1.43,0.961v8.144H114.104z"/>
	<path fill="#6D6E71" d="M90.079,11.633c-0.693,0.683-1.103,1.567-1.103,2.558c0,2.087,1.843,3.769,4.118,3.769
		c2.266,0,4.113-1.682,4.113-3.769c0-0.991-0.418-1.875-1.102-2.558h2.341v-1.192h-4.034V8.415L91.045,8.02l-0.193,0.502
		l0.917,0.565v1.354h-4.039v1.192H90.079z M91.084,14.191c0-1.346,0.827-2.45,1.858-2.558h0.31c1.033,0.108,1.843,1.212,1.843,2.558
		c0,1.434-0.892,2.583-2,2.583C91.979,16.774,91.084,15.625,91.084,14.191"/>
	<path fill="#6D6E71" d="M47.903,12.544h-2.767c-0.197,0.656-0.477,1.255-0.795,1.77c1.57,1.266,4.229,1.868,4.229,1.868
		l-0.783,1.664c-1.908-0.593-3.366-1.971-4.05-2.718c-1.904,2.223-4.697,2.901-4.697,2.901l-0.405-0.728
		c2.617-1.289,3.651-3.207,4.013-4.757h-2.944v-1.186h3.141c0.052-0.805-0.049-1.354-0.049-1.354l-0.914-0.541l0.187-0.515
		l3.364,0.395c0.033,0.408,0.033,1.383-0.05,2.016h2.52V12.544z"/>
	<path fill="#6D6E71" d="M66.142,14.266v9.313H60.24v-3.663l-3.021-0.434l-0.161,0.375l0.883,0.657l0.016,2.56
		c0,0.934,0.764,1.691,1.694,1.691h8.783V8.948l-3.49-0.629l-0.208,0.536l1.405,0.961v3.264h-3.125v1.186H66.142z"/>
	<path fill="#6D6E71" d="M61.438,9.347l-3.68-0.399l-0.185,0.515l0.902,0.541c0,0,0.899,4.821-4.154,7.297l0.485,0.825
		c0,0,2.624-0.676,4.526-2.902c0.677,0.75,2.149,2.182,4.044,2.775l0.887-1.817c0,0-2.664-0.602-4.239-1.868
		C60.756,13.196,61.431,11.839,61.438,9.347C61.438,9.347,61.431,9.54,61.438,9.347"/>
	<path fill="#6D6E71" d="M49.693,24.864h1.568c0.39,0,0.726-0.326,0.726-0.732v-0.004V8.948L48.49,8.319l-0.211,0.536l1.414,0.961
		v9.604c-0.451,0.281-1.011,0.402-1.634,0.509c-0.858,0.14-3.078,0.08-3.11,0.08l0.002-2.643l-3.009-0.446l-0.159,0.386l0.889,0.655
		v2.048h-3.875v1.189h7.076c0.948,0,1.722-0.066,2.324-0.195c0.604-0.121,1.108-0.323,1.496-0.598V24.864z"/>
	<path fill="#6D6E71" d="M81.446,8.319l-0.207,0.536l1.427,0.961v4.602h-1.837c-0.266-2.707-2.199-4.809-4.56-4.809
		c-2.517,0-4.563,2.425-4.563,5.425c0,2.995,2.047,5.419,4.563,5.419c2.37,0,4.315-2.122,4.56-4.848h1.837v9.247h1.551
		c0.403,0,0.739-0.317,0.739-0.731V8.948L81.446,8.319z M76.27,19.261c-1.245,0-2.266-1.882-2.266-4.227
		c0-2.338,1.021-4.233,2.266-4.233c1.267,0,2.292,1.895,2.292,4.233C78.562,17.379,77.536,19.261,76.27,19.261"/>
</g>
</svg>
